<?xml version="1.0" encoding="utf-8"?>
<!DOCTYPE svg PUBLIC "-//W3C//DTD SVG 1.0//EN" "http://www.w3.org/TR/2001/REC-SVG-20010904/DTD/svg10.dtd">
<svg version="1.0" xmlns="http://www.w3.org/2000/svg" width="1024px" height="1024px" viewBox="0 0 1024 1024" preserveAspectRatio="xMidYMid meet">
 <g fill="#cc399f">
  <path d="M701 525.6 c0 -1.6 2.1 -2.6 5.6 -2.6 1.7 0 2.4 0.6 2.4 2 0 1.7 -0.7 2 -4 2 -2.8 0 -4 -0.4 -4 -1.4z"/>
  <path d="M442 515 c0 -1.3 -0.7 -2 -1.9 -2 -1 0 -2.4 -0.7 -3.1 -1.5 -0.7 -0.8 -2.5 -1.5 -4.1 -1.5 l-2.9 0 -0.2 -17.2 -0.2 -17.3 -0.6 17 -0.6 17 -0.2 -17.2 c-0.2 -20.3 -0.2 -20.3 8.8 -20.3 9.1 0 9 -0.3 9 23.5 0 17.6 -0.2 20.4 -1.6 20.9 -2.3 0.9 -2.4 0.8 -2.4 -1.4z m2.7 -18.2 c-0.2 -3.5 -0.3 -0.9 -0.3 5.7 0 6.6 0.1 9.4 0.3 6.3 0.2 -3.2 0.2 -8.6 0 -12z m0 -17.5 c-0.2 -1.6 -0.4 -0.5 -0.4 2.2 0 2.8 0.2 4 0.4 2.8 0.2 -1.3 0.2 -3.5 0 -5z"/>
  <path d="M470.2 493.3 c-0.2 -21.4 -0.3 -21.3 8.8 -21.3 5.4 0 5.8 0.2 7 2.9 0.8 1.9 1 7.8 0.8 17.9 -0.4 17.6 -0.6 18.1 -9.5 18.2 l-5.3 0 -0.2 -15.7 -0.2 -15.8 -0.6 16 -0.6 16 -0.2 -18.2z"/>
  <path d="M413.2 506.3 c-0.1 -0.9 -2.5 -1.3 -7.7 -1.3 l-7.5 0 0 -23.5 c0 -16 0.4 -24.8 1.3 -27.6 l1.2 -4 7.5 0.3 7.5 0.3 0 28.5 0.1 28.5 -0.6 -26.5 -0.5 -26.5 -0.5 26.5 c-0.3 14.6 -0.6 25.9 -0.8 25.3z m-13.5 -16 c-0.3 -1 -0.5 -0.2 -0.5 1.7 0 1.9 0.2 2.7 0.5 1.8 0.2 -1 0.2 -2.6 0 -3.5z m0 -16.5 c-0.2 -1.3 -0.4 -0.3 -0.4 2.2 0 2.5 0.2 3.5 0.4 2.3 0.2 -1.3 0.2 -3.3 0 -4.5z"/>
  <path d="M503.8 504.3 c-1.5 -1.5 -3.5 -5.2 -4.4 -8 -1.7 -5.2 -1.7 -5.3 0.9 -10.7 4.1 -8.5 13.2 -14.4 22.5 -14.5 5.1 -0.1 13.6 2.5 17.4 5.3 2.5 1.7 7.8 8.7 7.8 10.1 0 0.3 -1.5 1.4 -3.2 2.5 -4.7 2.8 -8.1 2.5 -11.7 -1 -2.9 -2.9 -3.4 -3.1 -9.8 -2.8 -6.4 0.3 -6.9 0.5 -8.1 3.2 -1.8 3.7 -0.3 7.4 3.8 8.9 2.4 0.9 3 1.7 3 3.9 0 3.3 -2.6 4.7 -10.5 5.5 -4.5 0.4 -5.3 0.2 -7.7 -2.4z"/>
  <path d="M658.2 505.6 c-0.2 -1.3 -0.6 -1.6 -1.9 -1 -1 0.4 -4 0.8 -6.7 0.9 -3.6 0 -5.1 -0.5 -6 -1.8 -0.9 -1.4 -0.7 -2 0.7 -2.8 1.4 -0.8 1.7 -1.9 1.3 -4.9 -1 -8.1 -4.6 -11.4 -11.9 -11.1 -7.2 0.3 -8.3 0.7 -10.5 4.5 -1.7 2.9 -2.4 3.3 -6.9 3.4 -6.4 0.1 -7.8 -0.8 -6.8 -4.4 0.5 -1.6 0.9 -3.5 1.1 -4.3 0.6 -2.9 7.8 -9 13.1 -11 10.5 -4 21.8 -1.8 29.5 5.8 3.7 3.7 4.7 5.5 5.3 9.4 0.4 2.6 1.1 4.7 1.6 4.7 0.5 0 0.8 3.3 0.7 7.3 l-0.2 7.2 -0.6 -7 -0.6 -7 -0.5 7 c-0.3 3.9 -0.6 6.2 -0.7 5.1z"/>
  <path d="M672.6 502.3 c-0.8 -5.5 2.3 -14.6 6.9 -20.7 4.4 -5.7 13.5 -10.6 20 -10.6 3.8 0 11.2 2.8 15.1 5.7 3.8 2.8 4.4 2.9 4.4 0.4 0 -3.3 2.8 -5.1 8 -5.1 7.9 0 7.6 -0.7 7 14.9 -0.3 7.7 -0.7 14.1 -1 14.4 -1.9 1.7 -7.5 3.7 -10.5 3.7 -3.4 0 -3.6 -0.2 -3.4 -3.2 0.3 -4.8 -3.4 -12.4 -6.9 -14.2 -4.2 -2.2 -12 -2.3 -16 -0.2 -4 2.1 -7.6 9.2 -7.7 15.1 l0 4 -7.7 0.3 -7.6 0.3 -0.6 -4.8z"/>
  <path d="M574.5 505 c-1.1 -0.5 -3.2 -0.9 -4.7 -0.9 -2.7 -0.1 -2.8 -0.3 -3 -6.3 l-0.1 -6.3 -0.7 6.5 -0.7 6.5 -0.1 -8.6 c-0.2 -7.8 -0.4 -8.7 -2.4 -9.7 -1.3 -0.6 -3.2 -1.1 -4.3 -0.9 -1.7 0.2 -2 -0.5 -2.3 -5.1 -0.4 -6.4 0.8 -8.2 5.4 -8.2 l3.4 0 0 -6.3 c0 -8 1.5 -9.7 8.8 -9.7 6.9 0 8.2 1.5 8.2 9.6 l0 6.4 6.4 0 c4.5 0 6.9 0.5 8 1.6 2.1 2.1 2.1 9.7 0 11.8 -1.8 1.9 -10.4 2.2 -12.2 0.4 -2 -2 -2.5 -0.2 -2.3 10.2 l0.2 10 -2.8 -0.1 c-1.5 0 -3.7 -0.4 -4.8 -0.9z m6.2 -11.7 c-0.3 -1 -0.5 -0.2 -0.5 1.7 0 1.9 0.2 2.7 0.5 1.8 0.2 -1 0.2 -2.6 0 -3.5z m13.1 -8 c-1 -0.2 -2.8 -0.2 -4 0 -1.3 0.2 -0.5 0.4 1.7 0.4 2.2 0.1 3.2 -0.1 2.3 -0.4z m-27.1 -24.5 c-0.2 -1.3 -0.4 -0.5 -0.4 1.7 -0.1 2.2 0.1 3.2 0.4 2.3 0.2 -1 0.2 -2.8 0 -4z"/>
  <path d="M104.2 503.6 c-0.2 -1.6 -0.8 -1.8 -4.3 -1.2 -2.3 0.4 -8.1 0.4 -13 0 l-8.9 -0.7 -0.2 -34.1 -0.3 -34.1 -0.5 34.5 -0.5 34.5 -0.3 -35.7 c-0.1 -23.3 0.2 -35.9 0.8 -36.3 0.6 -0.4 0.8 -1.1 0.5 -1.6 -0.4 -0.5 0.1 -0.9 1.1 -0.9 1.4 0 1.6 0.9 0.9 7.5 -0.8 8.8 -1.9 8.2 12.7 5.7 5.4 -1 10.3 -2.3 11 -3 1.6 -1.6 10.8 -1.6 10.8 0.1 0 0.7 -0.8 1.7 -1.8 2.4 -1.1 0.6 -2.7 2.7 -3.6 4.7 -1.5 3.1 -1.7 7.5 -1.8 31.9 -0.1 19.7 -0.4 24.7 -0.8 16.7 l-0.6 -11.5 -0.5 11.5 c-0.2 6.3 -0.6 10.7 -0.7 9.6z m1.5 -37.3 c-0.3 -1 -0.5 -0.2 -0.5 1.7 0 1.9 0.2 2.7 0.5 1.8 0.2 -1 0.2 -2.6 0 -3.5z"/>
  <path d="M122.6 499.4 c-1 -2.5 -0.7 -9.2 0.4 -9.9 1.4 -0.8 1.3 -8.2 -0.1 -9.1 -0.7 -0.4 -0.8 -2 -0.5 -4.3 1.6 -9.1 1.7 -10.9 0.7 -11.5 -2.2 -1.4 -1.2 -6.4 2 -9.5 l3.1 -3.1 36.8 0 c32.3 0 36.9 -0.2 38.1 -1.6 1.5 -1.9 1.7 -11 0.3 -12.4 -0.7 -0.7 -15.3 -1.1 -42.7 -1 l-41.7 0 0 -3 c0 -4 0.9 -4.1 21.5 -3.8 16.6 0.3 17 0.4 17.3 2.5 0.2 1.4 -0.3 2.3 -1.5 2.6 -1 0.3 7.6 0.5 19.2 0.4 11.6 0 19.8 -0.2 18.3 -0.4 -2.2 -0.3 -2.8 -1 -2.8 -2.9 0 -2.5 0 -2.5 8.8 -2.3 11.2 0.2 27.2 -2.3 28.4 -4.5 1.4 -2.4 4.3 -1.9 5.7 1 1.7 3.8 0.6 5.9 -3.9 7.4 -4.2 1.4 -4.7 2.3 -5.1 8 -0.4 5.5 0.8 7.8 4.7 9 4.5 1.5 5 2.9 2.5 7.7 -1.8 3.6 -1.8 4.2 -0.5 6.9 3.2 6.2 9.6 8.2 15.4 4.7 3.5 -2 5.5 -0.8 6.6 4 0.9 4.1 3 5.6 7.7 5.7 5.4 0 7.5 -1.4 8.7 -5.9 1.2 -4.6 3.4 -5.7 6.6 -3.6 2.8 1.8 9.3 1.9 11.6 0.1 1 -0.7 2.4 -2.8 3.2 -4.7 1.4 -3.2 1.3 -3.7 -1.1 -7.7 -2.9 -5 -2.4 -6.1 3.5 -7.7 l3.7 -1.1 0.3 -6.1 c0.3 -5.8 0.1 -6.2 -2.7 -8.2 -1.6 -1.2 -3.6 -2.1 -4.4 -2.1 -2.8 0 -3 -2.1 -0.6 -7 l2.4 -4.7 6 0.5 c3.3 0.2 7.3 1.1 8.9 1.9 5.1 2.6 17.9 -0.1 18.9 -3.9 0.4 -1.2 1.5 -1.8 3.4 -1.8 2.4 0 2.8 0.4 3 3.1 0.1 1.7 0.7 3.7 1.3 4.4 0.6 0.7 0.8 2.4 0.5 3.8 -0.4 1.4 -0.2 2.8 0.4 3.1 0.7 0.5 1 7.4 0.9 21.4 l-0.2 20.7 -0.6 -19.5 -0.6 -19.5 -0.2 20.8 c-0.2 20.3 -0.2 20.7 -2.3 20.7 -1.2 0 -4.3 1.1 -7.1 2.5 -3.8 1.9 -6.5 2.5 -11.4 2.5 -3.8 0 -8 0.7 -10.2 1.7 -2 0.9 -6.4 2 -9.7 2.5 -5.9 1 -8.1 1 -26.1 0.7 -5 0 -10.1 0.4 -11.2 1 -1.1 0.6 -13.5 1.5 -28.3 2.1 -14.5 0.5 -29.9 1.3 -34.2 1.6 l-7.7 0.7 -8.1 -5.2 c-4.4 -2.8 -8.9 -5.1 -9.9 -5.1 -1 0 -2.2 -0.4 -2.5 -1 -0.4 -0.6 -1.6 -0.4 -3.1 0.6 -2.1 1.4 -2.4 2.4 -2.6 7.8 -0.1 6.1 -0.1 6.1 -0.8 1.6 l-0.7 -4.5 -0.1 4.8 c-0.2 5.9 -1.2 6.4 -16.7 8.3 -14.9 1.8 -18.1 1.8 -18.9 -0.2z m1.1 -7.1 c-0.3 -1 -0.5 -0.2 -0.5 1.7 0 1.9 0.2 2.7 0.5 1.8 0.2 -1 0.2 -2.6 0 -3.5z m58 -39 c-9.8 -0.2 -25.6 -0.2 -35 0 -9.5 0.1 -1.4 0.3 17.8 0.2 19.3 0 27 -0.1 17.2 -0.2z m-31.9 -18 c-1 -0.2 -2.6 -0.2 -3.5 0 -1 0.3 -0.2 0.5 1.7 0.5 1.9 0 2.7 -0.2 1.8 -0.5z"/>
  <path d="M735.4 486.5 c0 -6.6 0.1 -9.2 0.3 -5.7 0.2 3.4 0.2 8.8 0 12 -0.2 3.1 -0.3 0.3 -0.3 -6.3z"/>
  <path d="M258.5 454.3 c-3.6 -0.9 -8.3 -5.2 -9.5 -8.8 -1.4 -4.2 -0.1 -9.1 3.3 -12.3 2.8 -2.6 9.8 -5.6 10.6 -4.5 0.3 0.4 1.5 0.9 2.5 1.1 4.8 0.9 9.6 7.4 9.6 13 0 3.3 -4 8.3 -8.3 10.2 -4.3 2 -4.8 2.1 -8.2 1.3z"/>
 </g>
 <g fill="#bc34b4">
  <path d="M79.8 446.3 c-1.4 -0.4 -1.8 -1.6 -2 -6.1 0 -3.1 -0.2 -7.7 -0.4 -10.1 -0.3 -5.2 3.8 -18.4 8.2 -25.8 3.9 -6.8 14.9 -17.3 21.9 -20.9 3.3 -1.7 9.2 -4.2 13 -5.5 l7 -2.4 78.1 0.1 78.1 0.2 6.4 2.2 c21.1 7.5 31.6 16.4 39.4 33.4 3.4 7.5 3.4 7.7 1.6 9.3 -1.1 0.9 -1.7 2.2 -1.4 2.9 0.3 0.8 -0.2 1.4 -1.1 1.4 -0.9 0 -2.7 0.6 -3.9 1.4 -2 1.2 -6.8 1.9 -14 1.9 -1.5 0 -4.5 -0.8 -6.7 -1.8 -3.4 -1.5 -4.6 -1.6 -7.9 -0.7 -5 1.5 -4.9 1.6 -4.4 -1.1 0.8 -4.1 -2.2 -9.6 -6.2 -11.3 -3.4 -1.4 -3.9 -1.4 -7.1 0.6 -5.6 3.2 -6.5 2.6 -8.9 -5.7 -0.6 -2.1 -5 -4.3 -8.6 -4.3 -4.1 0 -6.8 2.2 -7.4 6.1 -1 5.7 -2.6 6.5 -8 3.9 -4.4 -2.1 -4.5 -2.1 -8.2 -0.3 -4.4 2.1 -6.3 6.8 -4.5 10.7 0.9 1.9 0.8 2.5 -0.4 3 -1.9 0.7 -1.8 2.4 0.4 2.9 1.6 0.4 1.6 0.5 0 0.6 -1 0 -1.8 0.7 -1.8 1.5 0 1.3 -2 2.6 -4.1 2.6 -1.9 0 -0.8 -2.1 1.6 -3 3.1 -1.2 3.3 -2.2 0.3 -1.6 -1.3 0.3 -6 1 -10.6 1.7 -4.6 0.6 -8.9 1.7 -9.6 2.5 -1.1 1 -2 1 -5.2 -0.1 -4.6 -1.7 -9.4 -1.9 -9.4 -0.5 0 0.6 -7.1 1 -19.4 1 -11.9 0 -19.7 -0.4 -20.1 -1 -0.3 -0.5 -1.5 -1 -2.6 -1 -1 0 -1.9 0.5 -1.9 1 0 1.3 -4.7 1.3 -5.5 0 -0.7 -1.2 -19.6 -1.2 -21.5 0 -1.4 0.9 -0.2 1.4 6 2.3 1.4 0.3 -0.4 0.5 -4 0.6 -3.9 0.1 -7.7 0.8 -9.5 1.7 -1.6 0.9 -4.2 1.6 -5.7 1.5 -1.6 -0.1 -3.2 0.6 -4 1.7 -0.7 1.1 -2.2 1.8 -3.3 1.6 -2.6 -0.4 -15.5 1.8 -15.5 2.7 0 0.7 -4.6 0.8 -7.2 0.2z"/>
 </g>
 <g fill="#d8408d">
  <path d="M446.8 540.6 c-5.1 -0.9 -7.5 -1.9 -9.9 -4.1 -4.2 -4.1 -6.2 -8.2 -6.4 -13.4 -0.1 -2.5 -0.7 -4.7 -1.3 -4.9 -0.8 -0.2 -1.1 -2.9 -1 -8 l0.2 -7.7 0.6 7.5 c0.6 7.2 0.6 7.2 0.8 2 l0.2 -5.6 4.2 -0.1 c3.1 -0.2 4.5 0.3 5.5 1.7 0.8 1.1 2.1 2 2.9 2 0.8 0 1.4 0.9 1.4 1.9 0 1.1 0.6 2.2 1.3 2.5 0.9 0.5 0.9 0.7 -0.1 1.2 -0.9 0.4 -0.7 1.5 0.9 4.4 2.5 4.5 6.1 6.5 10.8 6.1 2.2 -0.2 3.1 0.1 2.7 0.8 -1.2 1.9 1 1.2 5 -1.7 4.4 -3.2 8.7 -10.2 6.7 -10.9 -0.8 -0.3 -1.3 -2 -1.2 -4.1 l0.1 -3.7 0.8 3 c0.6 2.4 0.8 2.6 0.9 0.8 0.1 -2.3 1.3 -2.8 5.8 -2.4 1.2 0.1 2.4 -0.3 2.8 -0.9 0.3 -0.5 1.7 -1 3.1 -1 2.7 0 2.5 -1.1 3 17 0.1 5.2 0 11.2 -0.3 13.3 l-0.5 3.7 -6.8 0 c-6.7 0 -6.8 -0.1 -7.9 -3 -1.2 -3.6 -1.5 -3.7 -5.6 -0.6 -3 2.3 -10 5.7 -11.4 5.5 -0.3 0 -3.6 -0.6 -7.3 -1.3z"/>
  <path d="M516.5 541 c-0.4 -0.6 -1 -0.8 -1.4 -0.6 -0.4 0.3 -3.1 -0.7 -6.1 -2.2 -5.9 -3 -11.4 -9 -10.5 -11.4 0.9 -2.4 8.3 -7 9.1 -5.7 0.3 0.6 2.4 2.4 4.6 4 3.7 2.6 4.9 2.9 11.8 2.9 8.8 0 11 -1.4 11 -6.8 0 -3.9 -2.2 -5.5 -11 -7.7 -3.6 -0.9 -6.9 -2 -7.5 -2.5 -0.5 -0.4 -2.7 -1.3 -4.8 -2 -4 -1.3 -9.7 -5.5 -9.7 -7.2 0 -0.7 0.4 -0.7 1.3 -0.1 2.3 1.9 6.4 2.3 10.8 1 2.4 -0.7 4.4 -1.8 4.4 -2.4 0 -2.2 1.4 -2.4 8.1 -0.7 14.7 3.7 20.6 7.8 23.8 16.7 1.7 4.5 1.7 5 0 9.7 -3.5 9.8 -13.7 16 -26.3 16 -3.8 0 -7.3 -0.5 -7.6 -1z"/>
  <path d="M574.2 538.1 c-7.1 -5.2 -8.5 -9.3 -8.7 -26.1 l-0.2 -14.5 0.7 11.5 0.6 11.5 0.2 -10.1 0.2 -10 5.3 0.7 c2.8 0.3 5.5 0.5 6 0.2 0.4 -0.2 0.7 0.1 0.7 0.6 0 0.6 0.7 1.1 1.5 1.1 1.2 0 1.5 1.7 1.5 9 0 4.9 0.5 10.1 1.2 11.5 1 2.2 1.7 2.5 6.3 2.5 3 0 5.7 0.5 6.3 1.3 1.4 1.7 2.4 8 1.5 9.3 -1.1 1.5 -6.6 3.1 -13.3 3.9 -5.1 0.5 -5.9 0.3 -9.8 -2.4z"/>
  <path d="M391.5 539.4 c-5.1 -1.1 -10.2 -2.9 -12.7 -4.7 -2.2 -1.4 -2.8 -2.6 -2.8 -5.6 l0 -3.7 6.5 0.4 c8.8 0.6 11.1 -0.2 13.9 -4.7 2.7 -4.2 4.6 -15.1 2.7 -15.1 -0.6 0 -1.1 -0.9 -1.1 -2.1 0 -1.1 0.5 -1.7 1 -1.4 0.6 0.3 1 0.2 1 -0.3 0 -0.5 2.5 -0.9 5.5 -0.8 3 0.1 5.5 -0.2 5.5 -0.6 0 -0.5 0.7 -0.8 1.5 -0.8 1.2 0 1.5 1.6 1.7 7.8 l0.1 7.7 0.7 -6 0.7 -6 0.1 6.2 c0.1 3.4 -0.2 6.3 -0.7 6.5 -0.5 0.2 -1.1 1.9 -1.4 3.8 -1.4 8.5 -3.7 12.5 -10 17.1 -3.8 2.8 -6.9 3.3 -12.2 2.3z"/>
  <path d="M657 536.8 c0 -2.1 -0.4 -2.3 -5.3 -2 -3.9 0.3 -5.7 0 -6.6 -1.2 -0.8 -0.9 -2.2 -1.6 -3.2 -1.6 -3.2 0 -3.3 -3.7 -0.1 -7 3 -2.9 4.3 -7.2 3.4 -11.5 -0.4 -2.1 -1 -2.4 -7.1 -2.8 -5.2 -0.3 -7.5 0.1 -11.1 1.7 -4.3 2 -4.5 2.3 -4.8 7 -0.3 5.3 1.6 8.6 5 8.6 2.8 0 2.4 4.8 -0.4 5.9 -10.7 4 -13.8 4 -17.2 0 -4.3 -5 -7.3 -13.9 -4.7 -13.9 0.5 0 1.1 -1.7 1.4 -3.8 0.8 -4.8 7.3 -11.2 14.2 -13.8 6.7 -2.5 24.2 -3 26.7 -0.7 1.6 1.4 2.1 1.4 5.8 -0.1 2.2 -0.9 4.5 -1.6 5 -1.6 0.6 0 1.1 7.1 1.2 18.3 l0.2 18.2 0.6 -16.5 0.6 -16.5 0.2 17.8 c0.2 17.1 0.1 17.7 -1.8 17.7 -1.4 0 -2 -0.7 -2 -2.2z"/>
  <path d="M76.4 515.5 c0 -11.6 0.2 -16.1 0.3 -10.2 0.2 5.9 0.2 15.4 0 21 -0.1 5.6 -0.3 0.8 -0.3 -10.8z"/>
  <path d="M78.1 517.7 l-0.1 -18.9 9.3 0.2 c5 0.1 9.9 0.1 10.7 -0.1 0.8 -0.1 2.7 -0.1 4.3 -0.1 2.3 0.2 2.7 0.6 2.8 3.5 0 2.7 0.2 2.9 0.9 1.2 0.5 -1.2 0.8 4.3 0.7 14 0 12.4 -0.2 14.3 -0.7 8.5 l-0.6 -7.5 -0.3 7.5 c-0.2 4.1 -0.5 6.7 -0.8 5.7 -0.4 -1.5 -1.1 -1.8 -3.1 -1.4 -1.5 0.3 -5.2 1.1 -8.2 1.7 -3 0.7 -7.4 1 -9.7 0.7 -3.7 -0.4 -4.2 -0.2 -4.6 1.7 -0.2 1.1 -0.5 -6.4 -0.6 -16.7z"/>
  <path d="M157.1 530.8 c0.2 -3 0.2 -3.1 0.8 -0.8 0.3 1.4 0.8 -7.6 1.1 -20 l0.6 -22.5 0.2 23.3 c0.2 20 0 23.2 -1.3 23.2 -1.1 0 -1.5 -1 -1.4 -3.2z"/>
  <path d="M683.4 530.7 c-4 -2.3 -5.5 -4 -7.9 -8.7 -2.5 -5 -2.8 -6.3 -2.6 -13.2 l0.1 -4.8 6 0 c4.4 0 6.1 -0.4 6.8 -1.6 1.8 -3.3 3.5 -0.4 2.8 4.7 -0.4 3.1 -0.3 4.9 0.4 4.9 0.5 0 1 0.7 1 1.6 0 2.6 3.7 7 7.4 8.8 4.1 1.9 10.6 1.4 15 -1.2 4.4 -2.6 6.9 -7.5 6.7 -13 -0.2 -6.1 0.6 -8.7 2.4 -7.2 1.7 1.4 8.2 -1.6 9.1 -4.2 0.3 -1 1.2 -1.8 2 -1.8 1.2 0 1.4 3 1.4 17.6 l0 17.6 -8.2 -0.2 c-4.6 -0.2 -8.7 -0.1 -9.3 0 -0.5 0.2 -3.5 0.4 -6.5 0.6 -3 0.1 -9.8 0.5 -15 0.8 -6.7 0.4 -10.1 0.2 -11.6 -0.7z"/>
  <path d="M125.6 530.3 c-1.8 -0.5 -1.8 -1.3 -1.3 -11.8 0.3 -6.4 0.1 -13 -0.5 -15.2 -0.5 -2.1 -1.1 -5.1 -1.3 -6.8 -0.1 -1.6 0 -2 0.2 -0.8 0.4 2 0.9 2.1 6.6 1.7 13.1 -1 20.7 -2.2 23.8 -3.8 1.8 -0.9 3.6 -1.6 4.1 -1.6 0.4 0 0.8 7.7 0.8 17 0 12.8 -0.3 17.1 -1.2 17.4 -0.7 0.1 -4.3 1.2 -8 2.4 -6.4 2.1 -18 2.8 -23.2 1.5z"/>
  <path d="M762 528.6 c0 -3 1.7 -4.3 2.3 -1.9 0.3 1 0.4 -2 0.4 -6.7 l0 -8.5 -0.7 6.5 c-0.5 5.7 -0.6 6 -1 2.7 l-0.5 -3.9 -2.7 2.1 c-1.4 1.2 -3.7 2.1 -5 2.1 -1.3 0 -2.9 0.5 -3.6 1.2 -0.9 0.9 -1.2 0.8 -1.3 -0.7 0 -1.9 -0.1 -1.9 -0.9 0 -0.5 1.2 -0.9 -7.7 -0.9 -22.2 -0.1 -28.4 -0.4 -27.6 9.3 -27.1 l6.1 0.3 0.3 4.3 c0.4 4.9 1.9 5.4 4.9 1.5 2.3 -3.3 9.9 -7.3 13.6 -7.3 5.1 0 6.3 3 5.1 12.4 l-0.7 4.6 -5.6 0 c-3.9 0 -6.6 0.6 -8.9 2 -5.4 3.3 -6.4 7.1 -6.2 25.2 0.1 15.3 0 15.8 -2 15.8 -1.5 0 -2 -0.7 -2 -2.4z m-12.3 -41.8 c-0.1 -6.2 -0.3 -1.4 -0.3 10.7 0 12.1 0.2 17.2 0.3 11.3 0.2 -5.9 0.2 -15.8 0 -22z"/>
  <path d="M735.4 510.5 c0 -11 0.2 -15.6 0.3 -10.3 0.2 5.3 0.2 14.3 0 20 -0.1 5.7 -0.3 1.3 -0.3 -9.7z"/>
  <path d="M207.8 521.3 c-4.1 -1.7 -5.6 -4.2 -3.5 -5.8 0.7 -0.5 1.9 -2 2.6 -3.3 2.1 -4 -0.5 -7 -12.9 -14.9 -6.3 -4.1 -11.6 -7.7 -11.7 -8.1 -0.2 -0.4 2.5 -0.7 6 -0.8 3.4 0 19 -0.6 34.6 -1.3 25.8 -1 28.8 -1.3 31.8 -3.2 1.8 -1.1 3.3 -2.5 3.3 -3.1 0 -0.6 1 -0.8 2.2 -0.5 1.1 0.3 3.6 0 5.4 -0.8 3.1 -1.3 3.4 -1.2 4.9 1.1 0.9 1.4 2.5 2.4 3.9 2.4 1.3 0 3.7 0.5 5.5 1.1 2.5 0.9 3.6 0.8 5.6 -0.5 1.7 -1.1 3.6 -1.5 5.8 -1.1 2.3 0.4 4.9 -0.1 9 -1.9 4.7 -2.1 6.7 -2.5 11 -2 4.4 0.5 6 0.2 10.3 -2 2.9 -1.4 6.1 -2.6 7.3 -2.6 1.2 0 2.1 -0.6 2.1 -1.5 0 -0.8 0.7 -1.5 1.5 -1.5 1.3 0 1.5 3.2 1.7 21.8 l0.2 21.7 0.6 -24 0.6 -24 0.2 24.8 c0.1 15.1 -0.2 24.6 -0.7 24.2 -0.5 -0.3 -1.1 0.5 -1.3 1.7 -0.5 3.4 -8.8 4.5 -21.8 2.8 l-10 -1.2 -0.2 -8.2 -0.2 -8.1 -0.6 8 -0.7 8 -0.1 -10.5 c0 -13.4 0.1 -12.6 -1.8 -14.4 -1.9 -1.9 -12.4 -2.2 -14.2 -0.4 -0.7 0.7 -1.2 2.3 -1.2 3.6 0 1.3 -0.4 2 -1 1.7 -0.6 -0.4 -1 1 -1 3.5 0 2.5 0.4 3.9 1 3.5 0.6 -0.4 0.9 2.2 0.8 7.2 l-0.2 7.8 -0.6 -7 -0.6 -7 -0.2 7 c-0.1 3.9 -0.6 6.5 -1 5.8 -0.4 -0.7 -3.6 -1.3 -7.2 -1.5 l-6.5 -0.3 -0.3 -3.2 c-0.2 -2.2 -1.2 -3.9 -3.3 -5.3 -1.6 -1.2 -2.9 -1.7 -2.9 -1.1 0 0.6 -0.7 1.1 -1.5 1.1 -0.8 0 -1.5 -0.4 -1.5 -1 0 -1.5 -2.9 -1.2 -4.6 0.4 -0.7 0.8 -1.9 1.6 -2.4 1.8 -0.6 0.2 -1.4 2.3 -1.7 4.6 -0.8 5.9 -3.2 6.7 -21.8 7.4 -12.1 0.5 -15.7 0.3 -18.7 -0.9z m58.7 -38.4 c0.4 -0.6 0.5 -1.3 0.2 -1.6 -0.8 -0.7 -4.7 0.7 -4.7 1.8 0 1.3 3.7 1.1 4.5 -0.2z"/>
  <path d="M445.2 509 c0 -1.9 0.2 -2.7 0.5 -1.7 0.2 0.9 0.2 2.5 0 3.5 -0.3 0.9 -0.5 0.1 -0.5 -1.8z"/>
  <path d="M833 495.6 c0 -0.8 -0.7 -1.6 -1.5 -2 -0.8 -0.3 -1.5 -1.4 -1.5 -2.5 0 -3.3 -4.7 -6.1 -10.1 -6.1 -6.4 0 -9.4 1.3 -11.5 4.9 -1.6 2.8 -2.3 3.1 -6.5 3.1 -3 0 -5.3 -0.6 -6.3 -1.6 -1.4 -1.4 -1.4 -1.9 0 -5.2 1.9 -4.7 6.7 -9.8 11.9 -12.5 5.3 -2.9 19.1 -3 24.5 -0.2 4.4 2.2 8.8 6.2 10.6 9.7 1.8 3.4 1.8 8.5 0.1 9.5 -0.8 0.4 -1.6 1.6 -2 2.6 -0.8 2.2 -7.7 2.5 -7.7 0.3z"/>
  <path d="M860.4 478.8 c0.9 -6.4 1.1 -6.8 4.2 -6.8 2.3 0 2.4 0.3 2.4 6 l0 6 -3.6 0 -3.7 0 0.7 -5.2z"/>
 </g>
 <g fill="#e54d76">
  <path d="M122.7 566.3 c-1 -1 -0.8 -5.2 0.3 -7.4 1.8 -3.3 3 -2.1 3 3.1 0 3.5 -0.4 5 -1.3 5 -0.8 0 -1.7 -0.3 -2 -0.7z"/>
  <path d="M104 557.7 c0 -1 -3.1 -1.2 -14 -0.9 l-14 0.4 0.1 -12.3 c0.1 -8.5 0.4 -11.1 0.9 -8.4 0.7 3.9 0.7 3.8 0.9 -1.6 l0.1 -5.7 7.3 0.1 c4 0 8.1 -0.4 9.2 -1 1.1 -0.6 3.9 -1.3 6.3 -1.7 l4.2 -0.6 0 16.5 c0 9.1 -0.2 16.5 -0.5 16.5 -0.3 0 -0.5 -0.6 -0.5 -1.3z m-26.3 -13.9 c-0.2 -1.8 -0.4 -0.6 -0.4 2.7 0 3.3 0.2 4.8 0.4 3.3 0.2 -1.5 0.2 -4.2 0 -6z"/>
  <path d="M106.4 544.5 c0 -8.2 0.2 -11.5 0.3 -7.2 0.2 4.3 0.2 11 0 15 -0.1 4 -0.3 0.5 -0.3 -7.8z"/>
  <path d="M721.2 553.5 c-3.4 -1.2 -6.5 -2.5 -6.8 -2.8 -0.4 -0.3 0.3 -1.8 1.4 -3.4 1 -1.5 2.3 -3.9 2.7 -5.2 1.1 -3.6 1.4 -13.1 0.4 -13.1 -0.5 0 -2.9 1.6 -5.5 3.5 -3.9 3 -6.7 4.1 -9.6 3.6 -0.5 0 -0.8 0.4 -0.8 0.9 0 1.5 -6 1.2 -11.2 -0.6 -4.5 -1.5 -12.8 -7.7 -12.8 -9.5 0 -1.2 6.9 -0.1 8.8 1.4 0.7 0.5 3.5 0.7 7 0.2 3.1 -0.4 13.2 -0.9 22.5 -1.1 l16.7 -0.5 0.2 5.3 0.1 5.3 0.8 -5.5 c0.6 -4.8 0.7 -4.5 0.5 2.8 -0.2 4.6 -0.8 8.8 -1.4 9.4 -0.7 0.7 -1.2 2.1 -1.2 3.1 0 2.1 -3.7 8.8 -4.8 8.6 -0.4 -0.1 -3.5 -1.1 -7 -2.4z"/>
  <path d="M124.8 554.5 c-0.5 -0.5 -0.8 -7.6 -0.8 -15.8 0 -14.9 0 -15 2 -13.2 3.2 2.9 11 3.1 19.3 0.5 4 -1.2 8 -2.7 8.9 -3.1 3.2 -1.6 3.8 -0.9 3.8 4.2 0 2.9 0.4 4.8 0.9 4.4 0.6 -0.3 1.1 1.2 1.3 3.2 0.3 3.6 0.5 3.8 4.1 4.1 3.3 0.3 5.7 -1 22.1 -11.7 17.6 -11.6 20.6 -13.2 20.6 -11.3 0 0.5 1.7 1.6 3.8 2.4 5.4 2.1 26.2 1.3 31.6 -1.3 2.2 -1.1 4.3 -1.9 4.6 -1.9 0.9 0 2 27.3 1.3 30 -0.6 2.1 -1 2.1 -12 0.4 l-3.3 -0.5 0 -6.9 c0 -8.5 -1.5 -10 -10.1 -10 -7.7 0 -8.9 1.5 -8.9 11.2 l0 7.5 -4.2 0.7 c-2.4 0.4 -7.2 1.6 -10.8 2.6 -4.5 1.4 -12.3 2.3 -25.5 3 -34.3 1.8 -48 2.3 -48.7 1.5z"/>
  <path d="M332 553.5 c0 -1.2 -1.9 -1.5 -10.7 -1.5 -6 -0.1 -13 -0.7 -15.8 -1.4 l-5 -1.3 0 -19.4 -0.1 -19.4 0.6 18 0.6 18 0.2 -16.4 c0.2 -12.9 0.5 -16.1 1.5 -15.4 1.9 1.6 18.1 3.4 22.7 2.7 3 -0.5 4.4 -1.3 4.8 -2.6 0.3 -1.3 1.1 -1.8 2.3 -1.5 1.3 0.4 1.9 -0.2 2.2 -2.2 0.2 -1.4 0.5 7.9 0.6 20.7 0.1 22.6 0 23.2 -1.9 23.2 -1.1 0 -2 -0.7 -2 -1.5z m2.7 -35.2 c-0.2 -2.1 -0.4 -0.6 -0.4 3.2 0 3.9 0.2 5.5 0.4 3.8 0.2 -1.8 0.2 -5 0 -7z"/>
  <path d="M280.2 547.3 c-0.2 -2.1 -0.7 -2.3 -5.6 -2.3 -3.1 0 -5.8 -0.5 -6.3 -1.2 -0.6 -0.7 -1.3 -8.4 -1.6 -17.1 l-0.5 -15.9 2.2 2.1 c2.5 2.3 6.6 2.7 9.6 0.9 1 -0.7 2.2 -1 2.5 -0.7 0.3 0.4 0.4 8.7 0.2 18.5 -0.1 9.8 -0.4 16.9 -0.5 15.7z"/>
  <path d="M282.4 533 c0 -9.1 0.2 -12.8 0.3 -8.2 0.2 4.5 0.2 11.9 0 16.5 -0.1 4.5 -0.3 0.8 -0.3 -8.3z"/>
  <path d="M375.4 539.7 c-4.9 -1.9 -11.4 -6.6 -11.4 -8.2 0 -0.6 2 -3 4.4 -5.4 l4.4 -4.4 2.8 2.2 c1.4 1.1 3.5 2.1 4.5 2.1 1.1 0 1.9 0.5 1.9 1 0 0.6 -0.7 1 -1.5 1 -4.3 0 1.4 4.9 8 6.8 5.8 1.7 10.4 2.2 11.1 1.1 0.6 -1.1 5.4 -1.2 5.4 -0.1 0 1.2 -5.6 4.2 -7.7 4.2 -1.1 0 -2.3 0.3 -2.7 0.8 -1.5 1.4 -14.7 0.7 -19.2 -1.1z"/>
  <path d="M517.6 540.4 c-0.5 -1.3 0.3 -1.4 5.7 -1 3.4 0.2 6.8 0.5 7.5 0.5 0.6 0.1 1.2 0.6 1.2 1.1 0 0.6 -3 1 -6.9 1 -5.3 0 -7 -0.4 -7.5 -1.6z"/>
  <path d="M579.3 540.9 c-4.6 -1.3 -4.2 -3.4 0.7 -3.6 7 -0.4 14 -2.1 14 -3.4 0 -0.5 0.9 -0.9 2 -0.9 1.6 0 2 0.7 2 3.1 0 2.5 -0.6 3.2 -3.5 4.5 -3.8 1.6 -10.3 1.7 -15.2 0.3z"/>
  <path d="M617.9 540.3 c-4 -1.7 -7.9 -5.1 -7.9 -6.9 0 -1 0.6 -1.1 2.4 -0.4 3.3 1.2 14.2 -2.1 13.1 -4 -0.4 -0.7 1.6 -1 5.9 -0.9 4.3 0.1 7.1 -0.3 8.2 -1.2 1.4 -1.1 1.8 -1.1 2.9 0.4 0.7 0.9 1.9 1.7 2.7 1.7 0.9 0 2.1 0.7 2.8 1.5 1.6 1.9 4.1 1.9 6.6 0 3.1 -2.4 4.4 -1.8 4.4 1.9 0 1.9 0.5 3.6 1.2 3.8 0.6 0.2 0.9 1.2 0.5 2.1 -0.5 1.4 -2 1.7 -7 1.7 -6.4 0 -6.5 0 -7 -3 -0.8 -3.7 -2.3 -3.7 -6.7 0 -1.9 1.7 -4.2 3 -5.2 3 -0.9 0 -2 0.4 -2.3 1 -0.9 1.4 -10.6 1 -14.6 -0.7z"/>
  <path d="M843 539.5 c0 -1 -1 -1.5 -2.8 -1.5 -3.6 0 -8.2 -2.1 -8.2 -3.7 0 -1.8 -0.6 -1.6 -4.1 0.9 -2.5 1.9 -3.4 2 -5.8 1.2 -2.1 -0.9 -3.2 -0.8 -4.6 0.2 -2.3 1.7 -18.5 2 -18.5 0.3 0 -0.5 -0.4 -0.8 -0.9 -0.5 -1.2 0.8 -4.8 -3.3 -6.6 -7.6 -2 -4.9 -1.9 -8.7 0.4 -14 4.2 -9.7 12.5 -13.9 28.5 -14.6 l10.8 -0.5 -0.5 -4.3 c-0.4 -4.3 -0.4 -4.4 2.3 -4.4 1.9 0 3 0.6 3.3 1.8 0.3 1.5 0.5 1.5 1.2 -0.3 0.5 -1.1 1.4 -2.4 2.2 -2.8 0.7 -0.4 1.3 -1.7 1.3 -2.7 0 -2.9 2.3 -2.4 3.9 0.8 2 3.7 2.9 49.5 1.1 51.8 -1.6 1.8 -3 1.8 -3 -0.1z m2.7 -32.7 c-0.1 -5.7 -0.3 -1.1 -0.3 10.2 0 11.3 0.2 15.9 0.3 10.3 0.2 -5.7 0.2 -14.9 0 -20.5z m-19.3 19.1 c3.6 -2.9 5.6 -7.8 4.7 -12 l-0.7 -3.4 -7.9 0.3 c-4.5 0.2 -9.3 1 -11.2 1.9 -3.1 1.4 -3.3 1.8 -3.3 6.8 0 7.2 1.4 8.5 9.4 8.5 4.9 0 6.9 -0.5 9 -2.1z"/>
  <path d="M749.2 538.8 c-1.8 -1.8 -1.6 -16.8 0.3 -20.4 0.8 -1.6 1.5 -2.3 1.5 -1.6 0 2.1 3 1.3 7 -1.8 2.1 -1.6 4.3 -3 4.9 -3 0.7 0 1.1 2.8 1.1 8 0 4.9 0.4 8 1 8 0.7 0 1 2.2 0.8 5.8 l-0.3 5.7 -7.5 0.3 c-5 0.2 -7.9 -0.1 -8.8 -1z m0.5 -15.1 c-0.2 -2.3 -0.3 -0.1 -0.3 4.8 0 5 0.1 6.8 0.3 4.2 0.2 -2.6 0.2 -6.7 0 -9z"/>
  <path d="M76.2 529 c0 -1.9 0.2 -2.7 0.5 -1.7 0.2 0.9 0.2 2.5 0 3.5 -0.3 0.9 -0.5 0.1 -0.5 -1.8z"/>
  <path d="M899 511.8 c-0.1 -20.2 -0.3 -21.3 -4.7 -23.6 -3.5 -1.9 -10.7 -1.5 -13.6 0.8 -4.3 3.4 -5.2 7.9 -4.8 24.4 0.2 11.6 0 15 -1.1 15.7 -0.7 0.5 -4.3 0.9 -8 0.9 l-6.7 0 0 -25.2 c0 -13.9 0.4 -27 1 -29 1 -3.7 1.1 -3.8 5.9 -3.8 6.6 0 8 0.7 8 4 0 4.1 1.7 4.6 4.8 1.7 4.7 -4.5 10.9 -6.6 17.4 -5.8 5.5 0.7 7.5 1.7 12.5 6.8 3.1 3.2 4.8 2.9 10 -1.7 8.7 -7.6 19.1 -7.9 27.8 -0.7 3.9 3.2 7.3 9.8 7.7 14.8 0.1 1.6 0.6 2.9 1 2.9 0.4 0 0.8 4.7 0.8 10.5 0 6.3 -0.4 10.5 -1 10.5 -0.5 0 -1.9 0.9 -3 2 -2.8 2.8 -10.5 2.8 -12 0.1 -0.5 -1.1 -1 -6.8 -1 -12.8 0 -12 -0.8 -14.1 -6.2 -16.9 -4.5 -2.3 -12 -0.3 -15.1 4 -1.9 2.7 -2.3 4.8 -2.7 15.1 -0.3 6.9 -1.1 13 -1.8 14.3 -1.5 2.7 -6.9 6.2 -9.4 6.2 -1.1 0 -1.8 0.8 -1.8 2 0 1.3 -0.7 2 -2 2 -1.9 0 -2 -0.7 -2 -19.2z m1.7 -6.5 c-0.1 -4.3 -0.3 -0.8 -0.3 7.7 0 8.5 0.2 12 0.3 7.8 0.2 -4.3 0.2 -11.3 0 -15.5z m41 -4 c-0.3 -1 -0.5 -0.2 -0.5 1.7 0 1.9 0.2 2.7 0.5 1.8 0.2 -1 0.2 -2.6 0 -3.5z"/>
 </g>
 <g fill="#f15d61">
  <path d="M276 587 c0 -1.6 0.7 -2 3.3 -2 4.7 0 7.7 1 7.7 2.6 0 1 -1.5 1.4 -5.5 1.4 -4.8 0 -5.5 -0.2 -5.5 -2z"/>
  <path d="M76.7 580.8 c-0.4 -1.2 -0.7 -7.9 -0.7 -14.8 l0 -12.5 10.7 0 c6 0 12.5 -0.4 14.6 -0.8 l3.7 -0.8 0.1 5.3 c0.2 4.9 0.2 5 0.9 1.8 0.5 -2.6 0.8 -1.1 0.9 5.5 0.1 7 0.5 9.7 2.1 12.3 1.1 1.7 1.6 3.2 1.2 3.3 -0.4 0 -6.8 0.4 -14.2 0.9 -7.4 0.5 -14.7 1.2 -16.1 1.5 -2.2 0.6 -2.7 0.3 -3.2 -1.7z"/>
  <path d="M313 581.3 c-1.4 -0.3 -3 -0.9 -3.7 -1.5 -0.6 -0.5 -3.3 -1.3 -6 -1.7 -3.6 -0.5 -4.7 -1.1 -4.3 -2.2 0.3 -0.8 0.6 -7.6 0.8 -15.3 0.2 -9.9 0.7 -14.2 1.7 -15.2 1 -1 1.4 -1.1 1.8 -0.1 0.8 2.2 12.1 4 22.2 3.4 l9.4 -0.5 0.7 4.6 c0.7 5 -0.1 27 -1.1 28 -0.7 0.8 -18.2 1.2 -21.5 0.5z"/>
  <path d="M123.3 567.3 c-1.3 -1.9 -1.4 -2.8 -0.5 -3.1 0.6 -0.2 1.2 -0.8 1.2 -1.3 0 -0.6 -0.4 -0.8 -0.9 -0.4 -0.6 0.3 -0.6 -0.7 0 -2.7 0.5 -1.8 0.9 -4.7 0.9 -6.5 0 -3.1 0.1 -3.2 3.1 -2.1 2.2 0.7 8.5 0.7 22.2 -0.2 10.6 -0.6 23.9 -1.4 29.7 -1.6 5.8 -0.3 13.4 -1.3 17 -2.3 3.6 -1 7.7 -2.2 9.2 -2.5 1.5 -0.3 3.4 -1.3 4.2 -2.2 1.5 -1.4 1.6 -1.4 1.6 0 0 0.9 0.7 1.6 1.5 1.6 1.2 0 1.5 1.9 1.5 11.4 0 6.3 -0.3 12.1 -0.6 13 -0.5 1.4 -5.4 1.6 -44.5 1.6 l-43.9 0 -1.7 -2.7z"/>
  <path d="M234.2 568.8 c-1.3 -1.3 -1.7 -23.3 -0.6 -27.5 l0.6 -2.3 2.5 2 c1.7 1.3 4.1 2 6.8 2 l4.2 0 0.6 9.3 c0.3 5 0.3 11.1 0 13.5 l-0.6 4.2 -6.1 0 c-3.5 0 -6.7 -0.5 -7.4 -1.2z"/>
  <path d="M266.8 564.3 c-0.3 -6.9 0.3 -25.6 0.7 -26.2 0.2 -0.1 1.4 0.6 2.6 1.8 1.6 1.5 3.6 2.1 6.6 2.1 l4.3 0 0.1 4.3 c0.1 3.6 0.2 3.8 0.9 1.7 0.5 -1.6 0.8 1.5 0.9 8.6 0.1 7.3 -0.3 11.4 -1.1 12.2 -0.7 0.7 -4 1.2 -8 1.2 l-6.8 0 -0.2 -5.7z"/>
  <path d="M689.3 565.6 c-7.1 -2.6 -13.2 -6.5 -15.1 -9.7 -1.5 -2.3 -0.3 -4.3 5 -8.1 l2.8 -1.9 4.2 2.9 c8.2 5.5 20.4 5.9 27.3 0.7 2.9 -2.1 3.3 -2.2 6 -0.7 1.6 0.8 4.5 1.5 6.3 1.4 1.9 -0.1 3 0.3 2.7 0.8 -0.3 0.6 -0.1 1 0.4 1 4.9 0 -5.6 10.1 -13.2 12.6 -7.7 2.6 -7.7 2.6 -14.2 3 -4.4 0.2 -7.7 -0.3 -12.2 -2z m13.5 0.7 c-1 -0.2 -2.8 -0.2 -4 0 -1.3 0.2 -0.5 0.4 1.7 0.4 2.2 0.1 3.2 -0.1 2.3 -0.4z"/>
  <path d="M805.5 541 c-0.3 -0.5 -1.3 -1 -2.2 -1 -2.3 0 -8.3 -4.8 -8.3 -6.7 0 -1.2 0.7 -1.4 3.1 -0.9 1.7 0.3 3.9 0.6 4.8 0.6 1.4 0 1.4 0.2 0.1 1 -1.1 0.7 0 0.9 3.5 0.9 6.6 -0.1 8.3 -0.6 9.6 -3.1 0.7 -1.3 0.7 -1.8 0.1 -1.4 -0.6 0.3 -1.3 0.2 -1.6 -0.3 -0.3 -0.5 0.1 -1.1 0.9 -1.5 0.8 -0.3 1.7 -0.1 2 0.4 0.3 0.5 2.7 1.9 5.3 3.2 2.6 1.2 4.9 2.4 5.1 2.5 0.8 0.5 -3.3 3.3 -7.7 5.3 -4.6 2.1 -13.7 2.7 -14.7 1z"/>
  <path d="M833.4 539.7 c-0.8 -0.4 -1.4 -2.3 -1.4 -4.1 0 -3.1 0.2 -3.2 3 -2.8 1.7 0.2 3.3 0.8 3.5 1.3 0.3 0.4 1.7 0.3 3 -0.3 3.1 -1.4 3.4 -1.1 3.7 3.3 l0.3 3.4 -5.3 0 c-2.9 0 -6 -0.4 -6.8 -0.8z"/>
  <path d="M860.3 533.5 l0.2 -6.6 7.8 -0.3 7.8 -0.4 -0.3 6.6 -0.3 6.7 -7.7 0.3 -7.6 0.3 0.1 -6.6z"/>
  <path d="M899.7 539.4 c-1.1 -1.1 -0.8 -11.4 0.3 -11.4 0.6 0 1 -1.5 1 -3.2 0 -2.3 0.3 -2.9 0.9 -1.9 1.3 2.1 7.2 -1.6 9.1 -5.7 0.9 -1.8 2.3 -3.2 3.3 -3.2 1.6 0 1.7 1.1 1.5 12.8 l-0.3 12.7 -7.5 0.3 c-4.2 0.1 -7.9 0 -8.3 -0.4z"/>
  <path d="M940.6 538.5 c-0.8 -2.1 -0.8 -25.3 0 -28.3 0.6 -2.1 0.8 -2 2.5 1.7 2.5 5.7 6 5.2 9.4 -1.4 1.3 -2.7 1.5 -2.8 1.5 -0.7 0 1.3 0.6 2.2 1.5 2.2 1.3 0 1.5 2 1.3 13.8 l-0.3 13.7 -7.6 0.3 c-6.3 0.2 -7.8 0 -8.3 -1.3z"/>
 </g>
 <g fill="#f8744a">
  <path d="M83.2 601.1 c-2.9 -5.1 -5 -11.8 -5.4 -17 -0.3 -4 -0.1 -4.5 2.2 -5.2 1.4 -0.4 6.8 -0.7 12.1 -0.8 5.2 -0.1 10 -0.6 10.6 -1.2 1.5 -1.5 6.2 0 7.9 2.6 3.7 5.6 0.8 5.4 93.3 5.6 84.3 0.1 85.1 0 88.4 -2 1.9 -1.1 4.2 -3.6 5.2 -5.5 1.8 -3.4 2.1 -3.5 6.5 -2.9 2.5 0.3 6.1 1.3 8 2.2 2.6 1.2 6.1 1.6 13.3 1.4 6.9 -0.1 9.7 0.2 9.7 1.1 0 2.4 -4.2 16 -6.1 19.7 l-2 4 -16.7 -0.4 c-9.2 -0.2 -42.8 -0.9 -74.7 -1.7 -45.5 -1 -63.3 -1.1 -82.5 -0.1 -27.7 1.3 -58.7 3 -64.1 3.5 -3.3 0.3 -3.9 0 -5.7 -3.3z"/>
 </g>
 <g fill="#fc833e">
  <path d="M92.8 614.2 c-5.3 -5.6 -9.5 -11.9 -8.5 -12.9 0.3 -0.3 4.7 -0.6 9.9 -0.7 17.3 -0.5 61.3 -2.6 63.4 -3.1 6.1 -1.4 168.5 1.5 170.2 3 0.9 0.8 -3.3 6.9 -8.3 12.3 -5.3 5.7 -5.6 5.9 -9.2 5.3 -6.1 -1.1 -180.2 -0.4 -195.8 0.8 -7.7 0.6 -14.5 1.1 -15.1 1.1 -0.6 0 -3.6 -2.6 -6.6 -5.8z"/>
 </g>
 <g fill="#fe9333">
  <path d="M126 633 c-0.8 -0.5 -2.6 -1 -3.9 -1 -3.4 0 -18.1 -7.2 -22.4 -10.9 -3.7 -3.3 -4.9 -5.8 -2.3 -4.8 0.8 0.3 7.2 0.1 14.3 -0.5 15.7 -1.2 201.7 -1.8 203.5 -0.6 1 0.6 0.2 1.9 -2.9 4.7 -4.7 4.3 -13.7 8.9 -23.2 12 -6.3 2.1 -8.1 2.1 -84 2.1 -48.4 0 -78.2 -0.4 -79.1 -1z"/>
 </g>
</svg>